{
	"asset":{
		"generator":"Khronos glTF Blender I/O v3.5.30",
		"version":"2.0"
	},
	"scene":0,
	"scenes":[
		{
			"name":"Scene",
			"nodes":[
				0
			]
		}
	],
	"nodes":[
		{
			"mesh":0,
			"name":"NILK_Shape_IndexedLineSet",
			"rotation":[
				0.7025248408317566,
				0.08036629855632782,
				-0.08036629110574722,
				0.7025249600410461
			],
			"scale":[
				0.05728499963879585,
				0.057285115122795105,
				0.0572851188480854
			],
			"translation":[
				-0.9959779977798462,
				-0.6167719960212708,
				-0.1202860027551651
			]
		}
	],
	"meshes":[
		{
			"name":"Mesh",
			"primitives":[
				{
					"attributes":{
						"POSITION":0
					},
					"indices":1,
					"mode":1
				}
			]
		}
	],
	"accessors":[
		{
			"bufferView":0,
			"componentType":5126,
			"count":54458,
			"max":[
				25,
				25.5,
				-0.5
			],
			"min":[
				0.5,
				1,
				-47
			],
			"type":"VEC3"
		},
		{
			"bufferView":1,
			"componentType":5123,
			"count":54458,
			"type":"SCALAR"
		}
	],
	"bufferViews":[
		{
			"buffer":0,
			"byteLength":653496,
			"byteOffset":0,
			"target":34962
		},
		{
			"buffer":0,
			"byteLength":108916,
			"byteOffset":653496,
			"target":34963
		}
	],
	"buffers":[
		{
			"byteLength":762412,
			"uri":"data:application/octet-stream;base64,"
		}
	]
}
